<svg width="36" height="39" viewBox="0 0 36 39" fill="none" xmlns="http://www.w3.org/2000/svg">
<path d="M3.81882 39C3.38643 38.9173 2.94767 38.8537 2.52164 38.752C1.42793 38.504 0.823854 37.7537 0.779343 36.6218C0.747549 35.9478 0.862006 35.3056 1.12907 34.6951C1.37706 34.1292 1.34527 33.6205 0.931953 33.1436C0.753908 32.9401 0.633092 32.7048 0.524993 32.4569C0.340589 32.0372 0.321513 31.6111 0.614015 31.236C0.906518 30.8608 1.31984 30.7654 1.77131 30.8099C1.93663 30.8227 2.10196 30.8545 2.25457 30.9117C3.49453 31.3759 4.78535 31.4077 6.07618 31.3059C7.34157 31.2042 8.58788 30.9689 9.76425 30.4729C9.9868 30.3775 10.1966 30.2631 10.4128 30.1613C10.9025 29.9324 11.125 29.5827 11.0742 29.0168C11.0424 28.6352 10.877 28.5208 10.54 28.489C9.70066 28.4127 8.90582 28.6416 8.11097 28.8324C6.90281 29.1185 5.70101 29.4237 4.4547 29.5191C3.36735 29.6018 2.30544 29.5 1.26897 29.1439C0.156186 28.7624 -0.212621 27.7005 0.429612 26.7022C0.493199 26.6068 0.556787 26.5114 0.633092 26.4224C0.855648 26.1617 1.04005 25.9519 0.817495 25.5449C0.614015 25.1634 0.849289 24.7183 1.28168 24.4576C1.57419 24.2795 1.87941 24.1269 2.17191 23.9489C2.38175 23.828 2.42626 23.6754 2.29272 23.4465C1.75859 22.5181 1.0782 21.6979 0.410536 20.8649C-0.21898 20.0827 -0.123599 19.2497 0.69032 18.6711C0.919235 18.5121 1.14179 18.3404 1.34527 18.1497C1.87941 17.6537 1.89212 17.323 1.44065 16.7444C0.982823 16.1594 0.658527 15.5299 0.696679 14.7605C0.709397 14.5316 0.760266 14.3154 0.862006 14.1055C1.24353 13.317 1.5869 12.5158 2.00022 11.7464C2.46441 10.8689 2.54707 9.92146 2.69332 8.96765C3.29105 5.10789 5.29405 2.38635 9.10294 1.15275C11.2395 0.459648 13.4523 0.205299 15.6842 0.0844825C17.0704 0.00181882 18.4694 -0.0172574 19.8619 0.0145363C22.8951 0.0844825 25.7819 0.752151 28.4272 2.29097C30.303 3.38467 31.7846 4.88533 32.9228 6.74209C33.9656 8.44623 34.7923 10.2458 35.2946 12.1852C36.5473 17.0051 35.6316 21.3036 32.1534 24.9472C31.4412 25.6911 30.5446 26.2253 29.6544 26.734C28.3699 27.4652 27.0155 28.0184 25.5339 28.2156C24.8917 28.3046 24.2304 28.3491 23.6009 28.2156C22.8251 28.0566 22.3609 27.4589 22.0303 26.7785C21.8141 26.3397 21.5406 25.9519 21.2036 25.6021C21.0447 25.4432 20.9366 25.3669 20.7903 25.6466C20.1417 26.8802 19.7538 28.1647 19.7983 29.5763C19.8365 30.8544 19.8683 32.1389 19.4359 33.3789C19.1243 34.2564 18.6538 34.9876 17.7 35.2356C16.9878 35.42 16.2629 35.5408 15.5507 35.7125C13.6812 36.1513 11.8054 36.59 9.99316 37.2386C9.75153 37.3213 9.52262 37.4358 9.32549 37.5947C8.32717 38.4023 7.1508 38.7647 5.89813 38.9173C5.80911 38.9301 5.72009 38.9173 5.65014 38.9936H3.82518L3.81882 39ZM27.9375 3.88065C26.6785 3.07945 25.4195 2.56439 24.0969 2.2083C22.5326 1.79498 20.9429 1.58515 19.3214 1.5915C16.53 1.60422 13.7448 1.65509 11.0042 2.27825C9.48446 2.62162 8.02831 3.13668 6.81379 4.15408C5.28133 5.43219 4.51828 7.15541 4.29573 9.07575C4.12404 10.5701 3.68529 11.9372 3.02398 13.2598C2.83322 13.6477 2.66789 14.0483 2.45805 14.4235C2.24821 14.7923 2.29272 15.1229 2.50256 15.4536C2.6361 15.6698 2.79506 15.8669 2.9286 16.0831C3.53904 17.0433 3.46273 18.137 2.73148 18.989C2.50256 19.2625 2.24185 19.5104 1.94299 19.7012C1.73315 19.8347 1.71408 19.9301 1.87941 20.1336C2.52164 20.9348 3.15751 21.7424 3.66621 22.639C4.23214 23.6436 4.07317 24.483 3.16387 25.1824C2.90316 25.3796 2.76963 25.5576 2.8205 25.8883C2.85229 26.1172 2.72512 26.327 2.57887 26.5114C2.29908 26.8675 2.02566 27.2236 1.73951 27.5924C2.70604 27.9421 3.6535 27.993 4.62638 27.8913C5.75188 27.7705 6.83923 27.4652 7.93293 27.2236C8.93761 27.0011 9.93594 26.7594 10.9724 26.9565C11.5574 27.071 12.0979 27.2745 12.4031 27.8404C13.0263 28.9913 12.6384 30.6065 11.5447 31.3123C9.84055 32.4123 7.90749 32.7303 5.93628 32.8829C4.82986 32.9719 3.71708 32.9465 2.57251 32.6731C3.0367 33.6141 2.9286 34.4853 2.57251 35.3755C2.38811 35.8333 2.27365 36.3166 2.42626 36.8253C2.48349 37.0288 2.59158 37.1305 2.81414 37.1814C3.60262 37.3531 4.39111 37.4421 5.19231 37.3912C6.20971 37.3276 7.22711 37.156 8.06646 36.5328C8.72141 36.0432 9.44631 35.7443 10.203 35.49C12.4413 34.746 14.7431 34.25 17.045 33.7668C17.5092 33.6714 17.7572 33.4361 17.8971 33.0228C18.1133 32.3551 18.1896 31.662 18.2087 30.9625C18.2341 30.0024 18.1196 29.0358 18.2786 28.0757C18.4948 26.7976 18.9145 25.5958 19.6839 24.5402C20.2943 23.7072 21.1273 23.5991 21.973 24.1968C22.6026 24.642 23.0159 25.2588 23.3783 25.9201C23.7853 26.6831 23.9379 26.7403 24.79 26.6958C26.2461 26.6195 27.5497 26.0917 28.8023 25.405C29.559 24.9853 30.2712 24.4957 30.9261 23.9361C31.3331 23.5864 31.3267 23.5228 30.8562 23.3321C29.3047 22.7025 28.0138 21.736 27.0346 20.3625C26.9647 20.2608 26.9074 20.1527 26.7675 20.1082C26.0363 19.8793 25.3305 19.8856 24.6374 20.2671C24.1032 20.5596 23.7153 21.0111 23.3084 21.4435C22.9904 21.7742 22.5326 21.7996 22.2147 21.5325C21.8967 21.2655 21.8204 20.7949 22.0939 20.4388C23.0032 19.2497 24.1541 18.4613 25.6993 18.3722C25.9854 18.3532 26.0426 18.2959 25.96 18.0225C25.6357 16.967 25.6166 15.8732 25.6865 14.7859C25.7183 14.3217 26.0617 14.0038 26.5068 14.0038C26.9456 14.0038 27.2572 14.3344 27.2699 14.8241C27.2762 15.0911 27.2699 15.3582 27.2635 15.6253C27.1872 18.8619 29.1266 21.2273 32.1407 22.1112C32.306 22.162 32.3823 22.1493 32.4777 22.0031C33.5205 20.3943 34.1055 18.6329 34.2073 16.7253C34.3026 14.8686 33.9974 13.0627 33.3679 11.314C32.6303 9.24108 31.6193 7.32709 30.1186 5.69289C30.0168 5.57844 29.9278 5.4767 29.7434 5.4767C27.9248 5.41947 26.1126 5.43219 24.3512 5.94725C22.7997 6.39872 21.4643 7.17448 20.5678 8.57977C20.1036 9.31102 19.8874 10.1249 19.7284 10.9643C19.6394 11.4348 19.2261 11.7019 18.8127 11.6065C18.374 11.5111 18.1006 11.1233 18.1705 10.6718C18.3358 9.65439 18.6283 8.67515 19.1752 7.78492C19.2261 7.70226 19.3151 7.62595 19.2642 7.5115C19.2515 7.5115 19.2388 7.49878 19.2261 7.49878C18.9971 7.48606 18.7682 7.48606 18.5393 7.46698C17.3057 7.33345 16.2057 6.971 15.5507 5.80099C15.2709 5.30501 15.3599 4.85354 15.7796 4.60555C16.1802 4.37028 16.619 4.49745 16.9051 4.97436C17.134 5.35588 17.4583 5.61659 17.878 5.70561C19.2261 5.99176 20.555 6.01083 21.8141 5.31137C22.3673 4.99979 22.9523 4.76452 23.5564 4.57376C24.9426 4.12864 26.3733 3.97603 27.9312 3.88065H27.9375Z" fill="#002878"/>
<path d="M7.51908 18.1057C7.48093 18.9451 7.25837 19.6318 6.72424 20.185C6.33636 20.592 5.91032 20.6238 5.50972 20.3186C5.27445 20.1405 5.17906 19.9116 5.2045 19.6255C5.2045 19.5746 5.21722 19.5237 5.23629 19.4792C5.49064 18.748 5.32532 18.1439 4.79754 17.5779C4.44145 17.1964 4.19982 16.7259 4.20618 16.179C4.20618 15.5559 4.60678 15.2252 5.22358 15.3397C6.44446 15.5622 7.55724 16.9484 7.52544 18.1184L7.51908 18.1057Z" fill="#002878"/>
</svg>
