<svg width="91" height="91" viewBox="0 0 91 91" fill="none" xmlns="http://www.w3.org/2000/svg">
<circle opacity="0.2" cx="45.5" cy="45.5" r="45.5" fill="#73CF9D"/>
<circle cx="45.4998" cy="45.5" r="30.3333" fill="#73CF9D"/>
<path d="M56.7067 37.0604C56.3418 37.0712 55.9956 37.2237 55.7412 37.4855L41.2866 51.9401L36.6622 47.3157C36.5328 47.181 36.3778 47.0734 36.2063 46.9992C36.0348 46.9251 35.8502 46.886 35.6634 46.8841C35.4765 46.8822 35.2912 46.9175 35.1182 46.9882C34.9453 47.0588 34.7881 47.1632 34.656 47.2953C34.5239 47.4275 34.4194 47.5846 34.3488 47.7576C34.2782 47.9306 34.2428 48.1159 34.2447 48.3027C34.2466 48.4896 34.2858 48.6741 34.3599 48.8456C34.434 49.0171 34.5416 49.1721 34.6764 49.3015L40.2937 54.9188C40.5571 55.1821 40.9142 55.33 41.2866 55.33C41.659 55.33 42.0161 55.1821 42.2795 54.9188L57.727 39.4713C57.9299 39.274 58.0685 39.0201 58.1247 38.7427C58.1808 38.4653 58.1518 38.1775 58.0415 37.9168C57.9312 37.6562 57.7447 37.435 57.5065 37.2822C57.2684 37.1293 56.9896 37.052 56.7067 37.0604Z" fill="white"/>
</svg>
