<svg width="91" height="91" viewBox="0 0 91 91" fill="none" xmlns="http://www.w3.org/2000/svg">
<circle opacity="0.2" cx="45.5" cy="45.5" r="45.5" fill="#E95757"/>
<circle cx="45.4998" cy="45.5" r="30.3333" fill="#E95757"/>
<path d="M35.3723 33.6873C35.0371 33.6873 34.7095 33.7874 34.4314 33.9747C34.1534 34.1619 33.9375 34.4278 33.8113 34.7384C33.6852 35.049 33.6545 35.3902 33.7233 35.7183C33.792 36.0464 33.9571 36.3466 34.1973 36.5804L43.117 45.5L34.1973 54.4196C34.0356 54.5749 33.9065 54.7609 33.8175 54.9667C33.7286 55.1725 33.6816 55.394 33.6793 55.6182C33.677 55.8424 33.7195 56.0648 33.8042 56.2724C33.889 56.48 34.0143 56.6686 34.1728 56.8271C34.3314 56.9856 34.5199 57.1109 34.7275 57.1957C34.9351 57.2804 35.1575 57.3229 35.3817 57.3206C35.6059 57.3184 35.8274 57.2714 36.0332 57.1824C36.239 57.0935 36.425 56.9643 36.5803 56.8026L45.4999 47.883L54.4195 56.8026C54.5748 56.9643 54.7608 57.0935 54.9666 57.1824C55.1724 57.2714 55.3939 57.3184 55.6181 57.3206C55.8423 57.3229 56.0647 57.2804 56.2723 57.1957C56.4799 57.111 56.6685 56.9856 56.827 56.8271C56.9855 56.6686 57.1109 56.48 57.1956 56.2724C57.2803 56.0648 57.3228 55.8424 57.3205 55.6182C57.3183 55.394 57.2713 55.1725 57.1823 54.9667C57.0934 54.7609 56.9642 54.5749 56.8025 54.4196L47.8829 45.5L56.8025 36.5804C57.046 36.3437 57.2123 36.0389 57.2797 35.7061C57.347 35.3732 57.3122 35.0278 57.1799 34.715C57.0475 34.4023 56.8238 34.1368 56.5379 33.9534C56.2521 33.77 55.9176 33.6772 55.5781 33.6873C55.1403 33.7003 54.7248 33.8833 54.4195 34.1974L45.4999 43.1171L36.5803 34.1974C36.4232 34.036 36.2354 33.9077 36.028 33.82C35.8205 33.7324 35.5976 33.6873 35.3723 33.6873Z" fill="white"/>
</svg>
