<svg width="20" height="20" viewBox="0 0 20 20" fill="none" xmlns="http://www.w3.org/2000/svg">
<g id="ic:round-access-time-filled" clip-path="url(#clip0_18380_107184)">
<path id="Vector" d="M12.9801 12.9798L12.9797 12.9801C12.9491 13.0109 12.9127 13.0352 12.8726 13.0519C12.8325 13.0685 12.7895 13.077 12.7462 13.077C12.7028 13.077 12.6598 13.0685 12.6197 13.0519C12.5796 13.0352 12.5432 13.0109 12.5126 12.9801L12.5122 12.9798L9.77055 10.2381L9.77056 10.2381L9.76699 10.2346C9.73549 10.2037 9.71043 10.1669 9.69327 10.1263C9.67621 10.0859 9.66728 10.0426 9.66699 9.99873V6.66667C9.66699 6.48448 9.81813 6.33334 10.0003 6.33334C10.1825 6.33334 10.3337 6.48448 10.3337 6.66667V9.65834V9.86545L10.4801 10.0119L12.9801 12.5119C13.1098 12.6416 13.1098 12.85 12.9801 12.9798ZM9.99199 1.16667C5.1152 1.16667 1.16699 5.12451 1.16699 10C1.16699 14.8755 5.1152 18.8333 9.99199 18.8333C14.8761 18.8333 18.8337 14.8765 18.8337 10C18.8337 5.12354 14.8761 1.16667 9.99199 1.16667Z" stroke="#002878"/>
</g>
<defs>
<clipPath id="clip0_18380_107184">
<rect width="20" height="20" fill="white"/>
</clipPath>
</defs>
</svg>
